<svg width="15" height="15" viewBox="0 0 15 15" fill="none" xmlns="http://www.w3.org/2000/svg">
<path d="M7.70005 0.728149C3.90005 0.728149 0.800049 3.82044 0.800049 7.61098C0.800049 11.4015 3.90005 14.4938 7.70005 14.4938C11.5 14.4938 14.6 11.4015 14.6 7.61098C14.6 3.82044 11.5 0.728149 7.70005 0.728149ZM8.40005 12.399H7.10005V11.1023H8.40005V12.399ZM9.70005 7.31173L9.20005 7.91024C8.70005 8.409 8.40005 8.808 8.40005 9.80551H7.10005V9.50626C7.10005 8.808 7.40005 8.10974 7.90005 7.61098L8.70005 6.81297C8.90005 6.51372 9.00005 6.21447 9.00005 5.81546C9.00005 5.1172 8.40005 4.5187 7.70005 4.5187C7.00005 4.5187 6.40005 5.1172 6.40005 5.81546H5.10005C5.10005 4.31919 6.30005 3.22193 7.70005 3.22193C9.20005 3.22193 10.3 4.41895 10.3 5.81546C10.4 6.41397 10.1 6.91273 9.70005 7.31173Z" fill="#FAFAFA"/>
</svg>
